<svg width="22" height="22" viewBox="0 0 22 22" fill="none" xmlns="http://www.w3.org/2000/svg">
<g clip-path="url(#clip0_1067_1471)">
<path d="M10.8901 1.81543C7.37779 1.81543 4.53711 4.65611 4.53711 8.1684C4.53711 9.74756 4.99089 11.2269 5.81678 12.561C6.67897 13.9587 7.81343 15.1567 8.68469 16.5543C9.11125 17.235 9.41982 17.8703 9.74654 18.6054C9.98251 19.1046 10.1731 19.9668 10.8901 19.9668C11.6071 19.9668 11.7976 19.1046 12.0245 18.6054C12.3603 17.8703 12.6598 17.235 13.0864 16.5543C13.9577 15.1657 15.0921 13.9677 15.9543 12.561C16.7893 11.2269 17.243 9.74756 17.243 8.1684C17.243 4.65611 14.4024 1.81543 10.8901 1.81543ZM10.8901 10.6642C9.63764 10.6642 8.62116 9.64773 8.62116 8.39529C8.62116 7.14285 9.63764 6.12637 10.8901 6.12637C12.1425 6.12637 13.159 7.14285 13.159 8.39529C13.159 9.64773 12.1425 10.6642 10.8901 10.6642Z" fill="#EB4335"/>
</g>
<defs>
<clipPath id="clip0_1067_1471">
<rect width="21.7816" height="21.7816" fill="white"/>
</clipPath>
</defs>
</svg>
