<svg width="18" height="18" viewBox="0 0 18 18" fill="none" xmlns="http://www.w3.org/2000/svg">
<path d="M17.6507 13.7652C16.065 11.1208 15.1108 9.96622 15.1108 7.11111C15.1092 5.61563 14.5694 4.17069 13.5901 3.04044C12.6108 1.91019 11.2575 1.17013 9.77748 0.955556V0.888889C9.77748 0.653141 9.68383 0.427048 9.51714 0.260349C9.35044 0.0936505 9.12434 0 8.8886 0C8.65285 0 8.42676 0.0936505 8.26006 0.260349C8.09336 0.427048 7.99971 0.653141 7.99971 0.888889V0.959289C6.51053 1.24128 5.16515 2.03077 4.19269 3.19331C3.22024 4.35585 2.68084 5.81954 2.66637 7.33511C2.66637 9.96622 1.5446 11.4009 0.126462 13.7652C0.0456247 13.9001 0.00201002 14.054 6.78269e-05 14.2112C-0.00187437 14.3685 0.0379254 14.5234 0.115407 14.6602C0.192888 14.7971 0.305277 14.9109 0.44111 14.9901C0.576942 15.0693 0.731355 15.1111 0.888595 15.1111H16.8886C17.0459 15.1111 17.2003 15.0693 17.3361 14.9901C17.472 14.9109 17.5844 14.797 17.6619 14.6602C17.7393 14.5234 17.7791 14.3684 17.7772 14.2112C17.7752 14.0539 17.7316 13.9 17.6507 13.7652Z" fill="#FED403"/>
<path d="M10.6664 16H7.11081C6.87506 16 6.64897 16.0937 6.48227 16.2604C6.31557 16.4271 6.22192 16.6531 6.22192 16.8889C6.22192 17.1246 6.31557 17.3507 6.48227 17.5174C6.64897 17.6841 6.87506 17.7778 7.11081 17.7778H10.6664C10.9021 17.7778 11.1282 17.6841 11.2949 17.5174C11.4616 17.3507 11.5553 17.1246 11.5553 16.8889C11.5553 16.6531 11.4616 16.4271 11.2949 16.2604C11.1282 16.0937 10.9021 16 10.6664 16Z" fill="#FED403"/>
</svg>
